<?xml version="1.0" standalone="no"?>
<!DOCTYPE svg PUBLIC "-//W3C//DTD SVG 20010904//EN"
 "http://www.w3.org/TR/2001/REC-SVG-20010904/DTD/svg10.dtd">
<svg version="1.0" xmlns="http://www.w3.org/2000/svg"
 width="199.000000pt" height="110.000000pt" viewBox="0 0 199.000000 110.000000"
 preserveAspectRatio="xMidYMid meet">

<g transform="translate(0.000000,110.000000) scale(0.100000,-0.100000)"
fill="#000000" stroke="none">
<path d="M413 1068 c17 -112 65 -317 88 -377 5 -13 26 -73 45 -135 48 -149
106 -286 144 -341 88 -127 201 -217 272 -214 27 1 28 3 8 6 -91 15 -237 146
-297 268 -65 132 -179 471 -208 620 -8 44 -23 104 -32 133 -14 46 -14 55 -2
63 11 7 10 9 -5 9 -15 0 -17 -6 -13 -32z"/>
<path d="M486 1062 c76 -74 107 -92 161 -92 28 0 71 3 97 6 41 6 51 13 78 50
l31 44 142 0 142 0 31 -44 c27 -37 37 -44 78 -50 26 -3 69 -6 97 -6 54 0 88
19 155 87 49 50 92 39 63 -15 -5 -9 -19 -64 -30 -122 -37 -178 -146 -507 -214
-645 -60 -122 -206 -253 -297 -268 -20 -3 -19 -5 8 -6 71 -3 184 87 272 214
38 55 96 192 144 341 19 62 40 122 45 135 23 60 71 265 88 377 5 30 3 32 -26
32 -22 0 -44 -13 -82 -46 -83 -74 -105 -79 -224 -57 -18 3 -46 23 -68 47 l-39
41 -143 0 -143 0 -40 -42 c-21 -24 -41 -43 -43 -43 -2 0 -30 -4 -61 -9 -77
-13 -113 -1 -182 59 -67 59 -96 67 -40 12z"/>
<path d="M734 950 c-26 -27 -74 -93 -74 -101 0 -5 9 -66 20 -136 40 -248 79
-333 216 -471 94 -95 104 -95 198 1 138 137 176 222 216 475 20 122 20 135 6
155 -9 12 -24 33 -33 47 -10 14 -24 29 -33 35 -9 5 -118 10 -258 10 -206 0
-245 -2 -258 -15z m528 -62 c22 -27 28 -43 28 -86 0 -115 -39 -291 -86 -384
-26 -52 -158 -202 -187 -213 -10 -4 -28 -4 -40 0 -31 9 -162 156 -191 213 -47
92 -86 267 -86 382 0 42 5 59 29 89 l29 36 238 -2 239 -2 27 -33z"/>
</g>
</svg>
