<?xml version="1.0" standalone="no"?>
<!DOCTYPE svg PUBLIC "-//W3C//DTD SVG 20010904//EN"
 "http://www.w3.org/TR/2001/REC-SVG-20010904/DTD/svg10.dtd">
<svg version="1.0" xmlns="http://www.w3.org/2000/svg"
 width="133.000000pt" height="133.000000pt" viewBox="0 0 133.000000 133.000000"
 preserveAspectRatio="xMidYMid meet">

<g transform="translate(0.000000,133.000000) scale(0.100000,-0.100000)"
fill="#000000" stroke="none">
<path d="M115 1311 c-48 -22 -79 -54 -100 -103 -13 -32 -15 -109 -15 -545 0
-473 2 -511 19 -548 22 -48 54 -79 103 -100 32 -13 110 -15 546 -15 l509 0 44
23 c24 13 58 43 74 66 l30 43 0 533 0 533 -30 43 c-16 23 -50 53 -74 66 l-44
23 -511 0 c-475 0 -514 -2 -551 -19z"/>
</g>
</svg>
