<?xml version="1.0"?>
<svg width="320" height="61.89999999999999" xmlns="http://www.w3.org/2000/svg" xmlns:svg="http://www.w3.org/2000/svg" enable-background="new 0 0 320 61.9" version="1.1" xml:space="preserve">
 <style type="text/css">.st0{fill:#D41216;}
	.st1{fill:#1D1D1B;}
	.st2{font-family:&#x27;Arial-BoldMT&#x27;;}
	.st3{font-size:16.214px;}</style>
 <g class="layer">
  <title>Layer 1</title>
  <g id="svg_9">
   <g id="svg_2">
    <path d="m117.1,3.1l0,55.8c0,1.6 -1.5,3 -3.2,3l-110.7,0c-1.7,0 -3.2,-1.4 -3.2,-3l0,-55.8c0,-1.7 1.4,-3.1 3.2,-3.1l110.8,0c1.7,0 3.1,1.4 3.1,3.1z" fill="#7f3f00" id="svg_24"/>
    <g id="svg_1">
     <path d="m97.2,46.4l11.1,0l-11.1,9.9l-7.2,0l0,-52.3l7.2,0l11.1,9.1l-11.1,0l0,33.3z" fill="#ffbf00" id="svg_3"/>
     <path d="m21.1,13.9l-11.1,0l11.1,-9.9l7.5,0l0,52.3l-7.5,0l-11.1,-9.1l11.1,0l0,-33.3z" fill="#ffbf00" id="svg_8"/>
     <g id="svg_11" transform="matrix(1.00204 0 0 1.06846 142.111 8.39878)">
      <path d="m-105.82,1.05l25.57,0l21.31,23.5l-21.31,23.5l-25.57,0l0,-47z" fill="#ff7b00" id="svg_12" transform="rotate(90 -82.3799991607666,24.549999952316284)"/>
      <path d="m-105.89,1.25l0,-5.37l12,5.37l-12,0z" fill="#ff7b00" id="svg_13"/>
      <path d="m-58.88,1.38l0,-5.31l-12.06,5.31l12.06,0z" fill="#ff7b00" id="svg_14"/>
      <path d="m-88.29,1.27l5.86,-4.66l5.86,4.66l-11.72,0z" fill="#ff7b00" id="svg_15"/>
      <path d="m-101.35,3.67l20.83,0l17.36,19.84l-17.36,19.84l-20.83,0l0,-39.68z" fill="#ffbf00" id="svg_16" transform="rotate(90 -82.2549991607666,23.510000228881836)"/>
      <path d="m-102.07,4.48l0,-4.57l10.07,4.57l-10.07,0z" fill="#ffbf00" id="svg_17"/>
      <path d="m-62.43,4.55l0,-4.52l-10.12,4.52l10.12,0z" fill="#ffbf00" id="svg_18"/>
      <path d="m-87.3,4.5l4.91,-3.96l4.91,3.96l-9.82,0z" fill="#ffbf00" id="svg_19"/>
      <path d="m-105.1,21.82l5.84,-9.25l17.53,0l-5.84,9.25l-17.53,0z" fill="#ffd563" id="svg_20" transform="rotate(90 -93.4166 17.1926)"/>
     </g>
    </g>
   </g>
   <g id="svg_7">
    <text class="st1 st2 st3" id="svg_4" transform="matrix(0.95 0 0 1 124.941 16.7034)">БЛАНК ДОКУМЕНТА</text>
    <text class="st1 st2 st3" id="svg_5" transform="matrix(0.95 0 0 1 124.97 35.4929)">ВЫСШЕЕ РУКОВОДСТВО</text>
    <text class="st1 st2 st3" id="svg_6" transform="matrix(0.95 0 0 1 125.489 54.3269)">InteQ</text>
   </g>
  </g>
 </g>
</svg>